<svg width="13" height="11" viewBox="0 0 13 11" fill="none" xmlns="http://www.w3.org/2000/svg">
<path d="M4.16989 11H8.08978V0H4.16989V11ZM5.63985 1.83333H6.61982V2.75H5.63985V1.83333ZM5.63985 3.66667H6.61982V4.58333H5.63985V3.66667ZM5.63985 5.5H6.61982V6.41667H5.63985V5.5ZM2.20994 1.375C2.20994 1.12292 1.98945 0.916667 1.71996 0.916667C1.45047 0.916667 1.22997 1.12292 1.22997 1.375V3.20833C1.03888 3.20833 0.553791 3.20833 0.25 3.20833V11H3.18992V3.20833H2.20994V1.375ZM2.20994 7.33333H1.22997V6.41667H2.20994V7.33333ZM2.20994 5.5H1.22997V4.58333H2.20994V5.5ZM9.06975 3.20833V11H12.0097V3.20833H9.06975ZM11.0297 7.33333H10.0497V6.41667H11.0297V7.33333ZM11.0297 5.5H10.0497V4.58333H11.0297V5.5Z" fill="black"/>
</svg>
