<svg enable-background="new 0 0 218 84.93" viewBox="0 0 218 84.93" width="100" xmlns="http://www.w3.org/2000/svg"><g fill="#de0209"><path d="m13.61 9.15-7.18 2.25v7.43h-6.26v5.59h6.26v22.04c0 4.76.75 8.35 2.84 10.52 1.75 2 4.51 3.17 7.93 3.17 2.84 0 5.09-.5 6.51-1.09l-.33-5.51c-1.09.33-2.26.5-4.26.5-4.09 0-5.51-2.84-5.51-7.85v-21.77h10.52v-5.59h-10.52z"/><path d="m34.81 26.76h-.33l-.25-7.93h-6.43c.25 3.76.33 7.85.33 12.61v27.8h7.26v-21.54c0-1.25.17-2.42.33-3.42 1-5.51 4.68-9.43 9.85-9.43 1 0 1.75.08 2.51.25v-6.93c-.66-.17-1.24-.25-2.08-.25-4.92 0-9.35 3.42-11.19 8.84z"/><path d="m52.38 18.83h7.35v40.41h-7.35z"/><path d="m56.05 2.88c-2.67 0-4.59 2-4.59 4.59 0 2.51 1.84 4.51 4.43 4.51 2.92 0 4.76-2 4.68-4.51-.01-2.58-1.76-4.59-4.52-4.59z"/><path d="m85.58 23.84c4.01 0 6.76.92 8.52 1.92l1.67-5.68c-2-1-5.84-2.09-10.19-2.09-13.19 0-21.71 9.02-21.71 21.46 0 12.36 7.93 20.71 20.12 20.71 5.43 0 9.69-1.42 11.61-2.42l-1.25-5.51c-2.09.92-4.84 2-9.02 2-8.02 0-14.03-5.76-14.03-15.11 0-8.43 5.01-15.28 14.28-15.28z"/><path d="m116.56 17.91c-11.19 0-20.04 7.93-20.04 21.46 0 12.78 8.43 20.79 19.37 20.79 9.77 0 20.12-6.51 20.12-21.46 0-12.35-7.85-20.79-19.45-20.79zm-.34 36.74c-7.18 0-12.27-6.68-12.27-15.53 0-7.68 3.76-15.7 12.44-15.7s12.11 8.68 12.11 15.53c0 9.11-5.26 15.7-12.28 15.7z"/><path d="m141.02-.04h7.35v68.3h-7.35z"/><path d="m173.58 17.91c-11.19 0-20.04 7.93-20.04 21.46 0 12.78 8.43 20.79 19.37 20.79 9.77 0 20.12-6.51 20.12-21.46.01-12.35-7.84-20.79-19.45-20.79zm-.33 36.74c-7.18 0-12.27-6.68-12.27-15.53 0-7.68 3.76-15.7 12.44-15.7s12.11 8.68 12.11 15.53c-.01 9.11-5.27 15.7-12.28 15.7z"/><path d="m204.73 26.76h-.34l-.25-7.93h-6.43c.25 3.76.34 7.85.34 12.61v27.8h7.27v-21.54c0-1.25.16-2.42.33-3.42 1-5.51 4.67-9.43 9.85-9.43 1 0 1.76.08 2.5.25v-6.93c-.67-.17-1.25-.25-2.09-.25-4.92 0-9.35 3.42-11.18 8.84z"/><path d="m177.41 72.3c-1.42 0-2.59.36-3.77.93l.25.59c.26-.13.53-.25.8-.36.82-.32 1.68-.53 2.67-.53 2.37 0 3.81 1.19 3.81 3.6v.72c-1.04-.34-2.33-.59-3.81-.59-.99 0-1.88.16-2.62.47-1.29.54-2.11 1.54-2.11 2.96v.04c0 .95.38 1.69.98 2.23.77.69 1.91 1.04 3.07 1.04 2.46 0 3.94-1.31 4.49-2.48v2.22h.68v-6.64c0-1.31-.38-2.33-1.06-3.03-.78-.79-1.92-1.17-3.38-1.17zm3.79 6.91c0 1.91-1.89 3.56-4.47 3.56-.78 0-1.52-.17-2.11-.52-.76-.44-1.26-1.16-1.26-2.15v-.04c0-1.29.88-2.17 2.27-2.54.51-.14 1.08-.21 1.71-.21 1.59 0 2.82.25 3.86.59z"/><path d="m194.15 72.47h-.68v6.02c0 2.43-1.77 4.27-4.01 4.28-2.48 0-3.81-1.68-3.81-4.15v-6.15h-.02-.68v6.25c0 2.78 1.59 4.68 4.41 4.68h.02c2.26 0 3.59-1.49 4.09-2.75v2.5h.68.02v-10.68z"/><path d="m203.64 72.47h-3.86v-3.58h-.02-.68v3.58h-1.63v.61h.02 1.61v7.33c0 1.93 1.12 2.93 2.84 2.93h.02c.59 0 1.14-.11 1.67-.36v-.66c-.01 0-.01.01-.02.01v-.01c-.55.25-1.07.38-1.59.38-1.4 0-2.22-.79-2.22-2.35v-7.27h3.88v-.61z"/><path d="m211.17 72.22h-.01c-.01 0-.02 0-.03 0-3.29 0-5.55 2.61-5.55 5.6v.04c0 2.99 2.27 5.55 5.53 5.55h.03.01c3.28 0 5.53-2.61 5.53-5.59v-.04c0-3-2.25-5.56-5.51-5.56zm4.75 5.61c0 2.68-1.96 4.92-4.76 4.94-2.77-.01-4.8-2.25-4.8-4.94v-.04c0-2.69 1.94-4.93 4.76-4.94 2.76.02 4.8 2.26 4.8 4.94z"/></g></svg>