<svg width="68" height="68" viewBox="0 0 68 68" fill="none" xmlns="http://www.w3.org/2000/svg">
<rect x="1.5" y="11.1162" width="65" height="43.7071" rx="6.5" stroke="#E02826" stroke-width="3"/>
<line x1="42.3798" y1="26.6616" x2="58.8646" y2="26.6616" stroke="#F2B1A3" stroke-width="3"/>
<line x1="42.3798" y1="32.1565" x2="58.8646" y2="32.1565" stroke="#F2B1A3" stroke-width="3"/>
<line x1="42.3798" y1="37.6514" x2="58.8646" y2="37.6514" stroke="#F2B1A3" stroke-width="3"/>
<circle cx="22.95" cy="29.75" r="4.8" fill="#FB4E4E" stroke="#FB4E4E" stroke-width="4"/>
<mask id="mask0" mask-type="alpha" maskUnits="userSpaceOnUse" x="7" y="18" width="33" height="30">
<path d="M37.187 47.7444H10.0116C8.70892 47.7444 7.66025 46.6876 7.66025 45.3931V20.8967C7.66025 19.5941 8.71712 18.5454 10.0116 18.5454H37.187C38.4897 18.5454 39.5383 19.6023 39.5383 20.8967V45.3931C39.5383 46.6958 38.4815 47.7444 37.187 47.7444Z" fill="#F2B1A3"/>
</mask>
<g mask="url(#mask0)">
<circle cx="23.697" cy="53.0262" r="14.1414" fill="#FB4E4E" stroke="#FB4E4E" stroke-width="4"/>
</g>
<circle cx="33.6566" cy="58.384" r="9.61616" fill="white"/>
<path fill-rule="evenodd" clip-rule="evenodd" d="M33.6566 50.3706C29.2308 50.3706 25.6431 53.9584 25.6431 58.3841C25.6431 62.8098 29.2308 66.3975 33.6566 66.3975C38.0823 66.3975 41.67 62.8098 41.67 58.3841C41.67 53.9584 38.0823 50.3706 33.6566 50.3706V50.3706ZM37.1024 56.4689L33.4402 61.2769C33.2889 61.4735 33.0552 61.5889 32.8071 61.5895C32.5605 61.5908 32.327 61.4785 32.1741 61.285L30.2188 58.7928C29.9466 58.4431 30.0094 57.9391 30.359 57.6669C30.7087 57.3947 31.2127 57.4575 31.4849 57.8071L32.7911 59.4739L35.8202 55.4672C36.0902 55.1131 36.596 55.0449 36.9501 55.3149C37.3042 55.5849 37.3723 56.0908 37.1024 56.4448V56.4689Z" fill="#FB4E4E"/>
</svg>
