<svg width="68" height="68" viewBox="0 0 68 68" fill="none" xmlns="http://www.w3.org/2000/svg">
<g clip-path="url(#clip0)">
<rect x="1.5" y="13.5" width="65" height="43.7071" rx="6.5" stroke="#E02826" stroke-width="3"/>
<path fill-rule="evenodd" clip-rule="evenodd" d="M21.1556 22.0281C15.312 22.0281 10.5778 26.5394 10.5778 32.1144C10.5778 38.3862 18.2041 45.7951 21.1556 48.4725C24.107 45.7951 31.7333 38.3312 31.7333 32.1144C31.7333 26.5394 26.9991 22.0281 21.1556 22.0281ZM21.1556 33.9299C19.6897 33.9299 18.521 32.7929 18.521 31.4175C18.521 30.0238 19.7095 28.9051 21.1556 28.9051C22.6016 28.9051 23.7901 30.0421 23.7901 31.4175C23.7901 32.7929 22.6214 33.9299 21.1556 33.9299Z" fill="#FB4E4E"/>
<circle cx="33.9645" cy="59.0148" r="9.03116" fill="white"/>
<path fill-rule="evenodd" clip-rule="evenodd" d="M33.9645 51.4888C29.808 51.4888 26.4385 54.8583 26.4385 59.0147C26.4385 63.1712 29.808 66.5407 33.9645 66.5407C38.121 66.5407 41.4905 63.1712 41.4905 59.0147C41.4905 54.8583 38.121 51.4888 33.9645 51.4888V51.4888ZM37.2007 57.216L33.7613 61.7316C33.6192 61.9162 33.3997 62.0246 33.1667 62.0251C32.9351 62.0264 32.7158 61.9209 32.5722 61.7391L30.7359 59.3986C30.4802 59.0702 30.5392 58.5968 30.8676 58.3412C31.1959 58.0855 31.6693 58.1445 31.925 58.4729L33.1517 60.0383L35.9965 56.2753C36.2501 55.9428 36.7252 55.8788 37.0577 56.1323C37.3902 56.3858 37.4542 56.8609 37.2007 57.1935V57.216Z" fill="#FB4E4E"/>
<line x1="40.0444" y1="28.8394" x2="56.5293" y2="28.8394" stroke="#F2B1A3" stroke-width="3"/>
<line x1="40.0444" y1="34.3342" x2="56.5293" y2="34.3342" stroke="#F2B1A3" stroke-width="3"/>
<line x1="40.0444" y1="39.8291" x2="56.5293" y2="39.8291" stroke="#F2B1A3" stroke-width="3"/>
</g>
<defs>
<clipPath id="clip0">
<rect width="68" height="68" fill="white"/>
</clipPath>
</defs>
</svg>
