<svg width="68" height="68" viewBox="0 0 68 68" fill="none" xmlns="http://www.w3.org/2000/svg">
<g clip-path="url(#clip0)">
<line x1="15.7457" y1="41.3313" x2="44.6115" y2="41.3313" stroke="#F2B1A3" stroke-width="3"/>
<line x1="15.7457" y1="46.8296" x2="44.6115" y2="46.8296" stroke="#F2B1A3" stroke-width="3"/>
<line x1="15.7457" y1="52.3281" x2="44.6115" y2="52.3281" stroke="#F2B1A3" stroke-width="3"/>
<path d="M4.40549 62.401V7.31319C4.40549 6.08181 4.40549 5.46613 4.53968 4.9612C4.90951 3.56961 5.99873 2.48419 7.39159 2.11921C7.89699 1.98678 8.51267 1.98893 9.74404 1.99322L50.9939 2.13705C52.2176 2.14132 52.8294 2.14345 53.3318 2.27821C54.716 2.64956 55.7958 3.73313 56.1623 5.11868C56.2953 5.6215 56.2953 6.23334 56.2953 7.45701V62.6014C56.2953 63.1475 56.2953 63.4206 56.231 63.5911C56.0507 64.0694 55.5387 64.3346 55.044 64.2062C54.8676 64.1604 54.6445 64.0029 54.1984 63.688L52.6899 62.6232L52.6898 62.6231C52.1573 62.2472 51.891 62.0593 51.6179 61.9385C50.8707 61.6083 50.0213 61.5969 49.2656 61.9072C48.9893 62.0206 48.7181 62.2014 48.1758 62.563L48.1757 62.563L44.9518 64.7122C44.7879 64.8215 44.7059 64.8762 44.6217 64.9123C44.3919 65.0109 44.1334 65.0198 43.8973 64.9373C43.8108 64.907 43.7253 64.8582 43.5542 64.7604L43.5542 64.7604L39.3277 62.3452L39.3275 62.3452C38.784 62.0346 38.5123 61.8793 38.239 61.7865C37.4919 61.5328 36.6749 61.5837 35.9651 61.9281C35.7054 62.054 35.455 62.2419 34.9541 62.6175L34.9541 62.6175L30.9766 65.6006L30.9766 65.6007C30.7877 65.7423 30.6933 65.8131 30.5965 65.8576C30.3313 65.9796 30.0259 65.9796 29.7607 65.8576C29.6639 65.8131 29.5694 65.7423 29.3806 65.6007L29.3806 65.6006L25.6998 62.84C25.1332 62.4151 24.85 62.2027 24.5595 62.069C23.7638 61.703 22.8478 61.703 22.052 62.069C21.7616 62.2027 21.4783 62.4151 20.9118 62.84L17.2309 65.6006C17.0421 65.7423 16.9477 65.8131 16.8509 65.8576C16.5856 65.9796 16.2803 65.9796 16.015 65.8576C15.9182 65.8131 15.8238 65.7423 15.6349 65.6006L12.0329 62.8991C11.4492 62.4613 11.1573 62.2424 10.8591 62.1071C10.0414 61.7361 9.10062 61.7508 8.29499 62.1471C8.00109 62.2917 7.71622 62.5196 7.14649 62.9754L7.14641 62.9755L6.56633 63.4395L6.56628 63.4396C6.11132 63.8035 5.88384 63.9855 5.70505 64.0417C5.20265 64.1994 4.66402 63.9405 4.47335 63.4497C4.40549 63.275 4.40549 62.9837 4.40549 62.401Z" stroke="#E1251B" stroke-width="3"/>
<circle cx="56.2747" cy="33.953" r="11.953" fill="white"/>
<path fill-rule="evenodd" clip-rule="evenodd" d="M56.2747 23.9922C50.7735 23.9922 46.3139 28.4518 46.3139 33.953C46.3139 39.4542 50.7735 43.9139 56.2747 43.9139C61.7759 43.9139 66.2356 39.4542 66.2356 33.953C66.2356 28.4518 61.7759 23.9922 56.2747 23.9922V23.9922ZM60.5579 31.5724L56.0058 37.5489C55.8177 37.7931 55.5272 37.9366 55.2189 37.9373C54.9123 37.939 54.622 37.7994 54.432 37.5588L52.0015 34.461H52.0015C51.6632 34.0264 51.7412 33.3998 52.1758 33.0615C52.6104 32.7232 53.237 32.8012 53.5753 33.2358L55.1989 35.3077L58.9641 30.3273C59.2997 29.8872 59.9285 29.8024 60.3686 30.138C60.8087 30.4736 60.8934 31.1024 60.5579 31.5425V31.5724Z" fill="#FB4E4E"/>
<path d="M37.0996 26.5788C37.0996 27.8748 36.6196 28.9788 35.6596 29.8908C34.7156 30.7868 33.3396 31.3308 31.5316 31.5228V34.2108H29.5636V31.5468C28.3796 31.4668 27.2596 31.2508 26.2036 30.8988C25.1476 30.5468 24.3076 30.0988 23.6836 29.5548L24.7636 27.1308C25.3556 27.6108 26.0756 28.0188 26.9236 28.3548C27.7716 28.6748 28.6516 28.8748 29.5636 28.9548V24.1548C28.4276 23.8828 27.4756 23.5868 26.7076 23.2668C25.9556 22.9308 25.3236 22.4508 24.8116 21.8268C24.2996 21.1868 24.0436 20.3468 24.0436 19.3068C24.0436 18.0108 24.5156 16.9068 25.4596 15.9948C26.4036 15.0828 27.7716 14.5388 29.5636 14.3628V11.6508H31.5316V14.3148C32.4276 14.3628 33.2996 14.5148 34.1476 14.7708C35.0116 15.0268 35.7636 15.3628 36.4036 15.7788L35.4196 18.2028C34.2036 17.4988 32.9076 17.0668 31.5316 16.9068V21.7548C32.6836 22.0268 33.6356 22.3228 34.3876 22.6428C35.1556 22.9628 35.7956 23.4428 36.3076 24.0828C36.8356 24.7068 37.0996 25.5388 37.0996 26.5788ZM27.1396 19.1628C27.1396 19.6908 27.3476 20.1148 27.7636 20.4348C28.1796 20.7548 28.7796 21.0268 29.5636 21.2508V16.9788C28.7476 17.1068 28.1396 17.3628 27.7396 17.7468C27.3396 18.1308 27.1396 18.6028 27.1396 19.1628ZM31.5316 28.9068C32.3796 28.7788 33.0036 28.5308 33.4036 28.1628C33.8196 27.7948 34.0276 27.3388 34.0276 26.7948C34.0276 26.2508 33.8116 25.8188 33.3796 25.4988C32.9476 25.1628 32.3316 24.8828 31.5316 24.6588V28.9068Z" fill="#FB4E4E"/>
</g>
<defs>
<clipPath id="clip0">
<rect width="68" height="68" fill="white"/>
</clipPath>
</defs>
</svg>
